<svg xmlns="http://www.w3.org/2000/svg" xmlns:svg="http://www.w3.org/2000/svg" id="svg2" width="24" height="24" version="1.1" viewBox="0 0 24 24"><metadata id="metadata12"/><path id="path4" fill="none" d="M0 0h24v24H0z"/><path id="path6-6" fill="none" d="m 31.016949,3.8644071 24,0 0,23.9999999 -24,0 0,-23.9999999 z"/><g id="g4224"><path id="path6" d="M 5 3 C 3.9 3 3 3.9 3 5 L 3 19 C 3 20.1 3.9 21 5 21 L 15.189453 21 L 15.189453 19.361328 L 16.550781 18 L 5 18 L 8.5 13.5 L 11 16.509766 L 14.5 12 L 15.189453 12.919922 L 15.189453 11.029297 L 21 11.029297 L 21 5 C 21 3.9 20.1 3 19 3 L 5 3 z"/><path id="path4-3" d="m 16.688474,12.528405 0,3 0.005,0 -0.005,0.005 2,1.995 -2,2.000001 0.005,0.005 -0.005,0 0,2.994999 6,0 0,-2.994999 -0.005,0 0.005,-0.005 -2,-2.000001 2,-1.995 -0.005,-0.005 0.005,0 0,-3 -6,0 z"/></g></svg>