<svg xmlns="http://www.w3.org/2000/svg" xmlns:svg="http://www.w3.org/2000/svg" id="svg2" width="210" height="150" fill="#000" version="1.1" viewBox="0 0 210 150"><metadata id="metadata12"/><path id="path4" fill="none" d="m 0,126 24,0 0,24 -24,0 z"/><path id="path6" fill="#ddd" fill-opacity="1" d="M 105,15 C 83.325,15 64.49707,27.29295 55.12207,45.29295 32.54707,47.69295 15,66.825 15,90 c 0,24.825 20.175,45 45,45 l 97.5,0 C 178.2,135 195,118.2 195,97.5 195,77.7 179.62207,61.64295 160.12207,60.29295 155.02207,34.41795 132.3,15 105,15 Z m -0.1611,71.103525 c 7.84987,-0.0375 14.28382,1.1811 21.73828,3.207975 8.61526,2.34247 22.77831,9.40432 22.77831,9.40432 4.49267,2.19713 1.19646,8.93603 -3.29589,6.7383 0,0 -14.66133,-7.04707 -21.44532,-8.89162 -6.91252,-1.8795 -12.70756,-2.99423 -19.74609,-2.95898 -6.554133,0.03 -14.5762,1.07783 -20.932614,2.92965 -6.244737,1.81935 -19.892577,8.877 -19.892577,8.877 -4.423828,2.33401 -7.924805,-4.30177 -3.500977,-6.63577 0,0 13.104889,-7.05068 21.284179,-9.43358 6.97161,-2.03107 15.684906,-3.200545 23.012699,-3.237295 z"/></svg>